<svg width="20" height="20" viewBox="0 0 20 20" fill="none" xmlns="http://www.w3.org/2000/svg">
<path d="M0.802742 6.20376H4.52724V17.0047H0.802742V6.20376ZM2.68774 1.0047C1.42349 1.0047 0.588242 1.8114 0.588242 2.8692C0.588242 3.90399 1.38991 4.73266 2.64224 4.73266H2.66499C3.96283 4.73266 4.77533 3.90399 4.76449 2.8692C4.75258 1.8114 3.96283 1.0047 2.68774 1.0047ZM13.6446 5.95265C11.6632 5.95265 10.7813 7.00104 10.2927 7.74077V6.20376H6.58016C6.58016 6.20376 6.62566 7.21762 6.58016 17.0047H10.2927V10.977C10.2927 10.6505 10.3274 10.3335 10.4162 10.0949C10.6882 9.45147 11.2959 8.78707 12.3251 8.78707C13.6662 8.78707 14.2079 9.77896 14.2079 11.2281V17.0047H17.9216V10.8137C17.9216 7.50012 16.0929 5.95265 13.6446 5.95265Z" fill="white"/>
</svg>
