<svg width="80" height="120" viewBox="0 0 80 120" fill="none" xmlns="http://www.w3.org/2000/svg">
<rect width="80" height="120" fill="black" fill-opacity="0.1"/>
<path d="M30 55.75C30 54.3711 31.1211 53.25 32.5 53.25H47.5C48.8789 53.25 50 54.3711 50 55.75V68.25C50 69.6289 48.8789 70.75 47.5 70.75H32.5C31.1211 70.75 30 69.6289 30 68.25V55.75ZM42.6484 59.9102C42.4727 59.6523 42.1836 59.5 41.875 59.5C41.5664 59.5 41.2734 59.6523 41.1016 59.9102L37.7031 64.8945L36.668 63.6016C36.4883 63.3789 36.2188 63.25 35.9375 63.25C35.6562 63.25 35.3828 63.3789 35.207 63.6016L32.707 66.7266C32.4805 67.0078 32.4375 67.3945 32.5938 67.7188C32.75 68.043 33.0781 68.25 33.4375 68.25H37.1875H38.4375H46.5625C46.9102 68.25 47.2305 68.0586 47.3906 67.75C47.5508 67.4414 47.5312 67.0703 47.3359 66.7852L42.6484 59.9102ZM34.375 59.5C34.8723 59.5 35.3492 59.3025 35.7008 58.9508C36.0525 58.5992 36.25 58.1223 36.25 57.625C36.25 57.1277 36.0525 56.6508 35.7008 56.2992C35.3492 55.9475 34.8723 55.75 34.375 55.75C33.8777 55.75 33.4008 55.9475 33.0492 56.2992C32.6975 56.6508 32.5 57.1277 32.5 57.625C32.5 58.1223 32.6975 58.5992 33.0492 58.9508C33.4008 59.3025 33.8777 59.5 34.375 59.5Z" fill="black" fill-opacity="0.2"/>
</svg>
